/* XPM */
static char * bat_32_xpm[] = {
"32 32 144 2",
"  	c None",
". 	c #828282",
"+ 	c #686868",
"@ 	c #6C6C6C",
"# 	c #B9B9B9",
"$ 	c #AFAFAF",
"% 	c #9C9C9C",
"& 	c #898989",
"* 	c #585858",
"= 	c #505050",
"- 	c #575757",
"; 	c #797979",
"> 	c #D1D1D1",
", 	c #B0B0B0",
"' 	c #ACACAC",
") 	c #ABABAB",
"! 	c #333333",
"~ 	c #4D4D4D",
"{ 	c #5A5A5A",
"] 	c #CACACA",
"^ 	c #B8B8B8",
"/ 	c #909090",
"( 	c #717171",
"_ 	c #6A6A6A",
": 	c #5E5E5E",
"< 	c #424242",
"[ 	c #525252",
"} 	c #6F6F6F",
"| 	c #BCBCBC",
"1 	c #C6C6C6",
"2 	c #A2A2A2",
"3 	c #5D5D5D",
"4 	c #777777",
"5 	c #646464",
"6 	c #414141",
"7 	c #3D3D3D",
"8 	c #7F7F7F",
"9 	c #BABABA",
"0 	c #939393",
"a 	c #626262",
"b 	c #383838",
"c 	c #4A4A4A",
"d 	c #4B4B4B",
"e 	c #2B2B2B",
"f 	c #7C7C7C",
"g 	c #B7B7B7",
"h 	c #B5B5B5",
"i 	c #A0A0A0",
"j 	c #7A7A7A",
"k 	c #6E6E6E",
"l 	c #5F5F5F",
"m 	c #363636",
"n 	c #444444",
"o 	c #707070",
"p 	c #D3D3D3",
"q 	c #C0C0C0",
"r 	c #9B9B9B",
"s 	c #848484",
"t 	c #484848",
"u 	c #747474",
"v 	c #D4D4D4",
"w 	c #BFBFBF",
"x 	c #C5C5C5",
"y 	c #B4B4B4",
"z 	c #A1A1A1",
"A 	c #616161",
"B 	c #5C5C5C",
"C 	c #393939",
"D 	c #787878",
"E 	c #A6A6A6",
"F 	c #727272",
"G 	c #6D6D6D",
"H 	c #888888",
"I 	c #B1B1B1",
"J 	c #AEAEAE",
"K 	c #C1C1C1",
"L 	c #ADADAD",
"M 	c #B6B6B6",
"N 	c #BEBEBE",
"O 	c #BDBDBD",
"P 	c #989898",
"Q 	c #C2C2C2",
"R 	c #CCCCCC",
"S 	c #B2B2B2",
"T 	c #878787",
"U 	c #8F8F8F",
"V 	c #949494",
"W 	c #A4A4A4",
"X 	c #C3C3C3",
"Y 	c #868686",
"Z 	c #969696",
"` 	c #C8C8C8",
" .	c #9E9E9E",
"..	c #929292",
"+.	c #818181",
"@.	c #BBBBBB",
"#.	c #515151",
"$.	c #ECECEC",
"%.	c #999999",
"&.	c #A3A3A3",
"*.	c #666666",
"=.	c #F2F2F2",
"-.	c #F6F6F6",
";.	c #8E8E8E",
">.	c #737373",
",.	c #676767",
"'.	c #D0D0D0",
").	c #D9D9D9",
"!.	c #C9C9C9",
"~.	c #F1F1F1",
"{.	c #959595",
"].	c #535353",
"^.	c #CECECE",
"/.	c #919191",
"(.	c #C7C7C7",
"_.	c #7B7B7B",
":.	c #8D8D8D",
"<.	c #DDDDDD",
"[.	c #858585",
"}.	c #464646",
"|.	c #A7A7A7",
"1.	c #AAAAAA",
"2.	c #767676",
"3.	c #979797",
"4.	c #A8A8A8",
"5.	c #343434",
"6.	c #494949",
"7.	c #545454",
"8.	c #A9A9A9",
"9.	c #434343",
"0.	c #CBCBCB",
"a.	c #757575",
"b.	c #4F4F4F",
"c.	c #D5D5D5",
"d.	c #636363",
"e.	c #5B5B5B",
"f.	c #555555",
"g.	c #9F9F9F",
"h.	c #838383",
"i.	c #8A8A8A",
"j.	c #7E7E7E",
"k.	c #CFCFCF",
"l.	c #DADADA",
"m.	c #E8E8E8",
". + + @                                                         ",
"# $ % & * = - ;                                                 ",
"  > , ' ) ; ! ~ {                                               ",
"  , ] ^ / ( _ : < [ }                                           ",
"    | 1 2 3 _ 4 5 6 7 8                                         ",
"    2 9 0 + a b c c d e f                                       ",
"    g h # ^ i j k l m n 7 o                                     ",
"      1 p q , 1 r s ( k t u $                                   ",
"        v w x y z A B b t C D                                   ",
"        h p E F G H 4 s l : /                                   ",
"          ) I E 1 w h ' J D u                                   ",
"          J ' q ] # K g L / F                                   ",
"            M h N ] K O , P 4                                   ",
"              Q N R O S 2 T U                                   ",
"              M y N O x , V W G                                 ",
"              # | | X y N V $ Y Z                               ",
"                ` x ] M K Y !  .../   +.P D                     ",
"                | @.g | #.' O v $.o { 4 %.8                     ",
"                &.q 8 *.J ] =.y -.R H u J ;.k >.                ",
"              ,.s O 2 '.R ).| !.~./ {.u X i }                   ",
"              8 L o ].^.D /.%.E (.x >._.& :.r                   ",
"              ) M o *.<.[.}.8 ( *.[ P S P |.N 1.f +.4 2.3.4.    ",
"              , q _ T w h ~ 5.6./.N W } = T f u Y } } { 7._     ",
"              P 8.$ G n ~ F S |.,.; 9.s y 9 ^.p ] 0.r : }.a.r   ",
"              a._ { l b.~ #.} [.a.i &.8.J w N 0.<.c.d.F ].e.f.  ",
"                                    g.# 4.q > > ).M h.i.j.*.} j ",
"                                          Z x k.k.O } l.A +.@ ,.",
"                                              R |.4 m.> {.% ;./.",
"                                                  0.'.E 3.' Q _.",
"                                                      I 1., '.%.",
"                                                          N p   ",
"                                                            g   "};
