/* XPM */
static char * kuser_xpm[] = {
"32 32 410 2",
"  	c None",
". 	c #837000",
"+ 	c #7F6D00",
"@ 	c #7F6C00",
"# 	c #8A7900",
"$ 	c #867400",
"% 	c #988713",
"& 	c #CAC185",
"* 	c #EDE9CE",
"= 	c #FFFFFC",
"- 	c #FFFFFF",
"; 	c #F6F2DB",
"> 	c #D6CF9D",
", 	c #AC9D3B",
"' 	c #93810B",
") 	c #DFD9B2",
"! 	c #FEF9E6",
"~ 	c #FFF8E1",
"{ 	c #FEF8E1",
"] 	c #FFF7E0",
"^ 	c #FFF7DD",
"/ 	c #FDF5D9",
"( 	c #FBF3D5",
"_ 	c #FCF9E8",
": 	c #F6F3DE",
"< 	c #A89936",
"[ 	c #A39429",
"} 	c #FFFFF8",
"| 	c #FEF6DC",
"1 	c #FEF7DE",
"2 	c #FFF7DF",
"3 	c #FFF7DC",
"4 	c #FEF6D9",
"5 	c #FEF5D4",
"6 	c #FDF4CF",
"7 	c #F9EFC6",
"8 	c #F3E9BA",
"9 	c #FAF6E1",
"0 	c #CEC589",
"a 	c #A39428",
"b 	c #FFFFFB",
"c 	c #FFF4D2",
"d 	c #FFF6DA",
"e 	c #FEF8E2",
"f 	c #FEF7DF",
"g 	c #FFFBE0",
"h 	c #D2CBAF",
"i 	c #DBD3B5",
"j 	c #FFF7D1",
"k 	c #FBEEBF",
"l 	c #F4E9B4",
"m 	c #EEE2A6",
"n 	c #EFE6B8",
"o 	c #D2C88D",
"p 	c #857400",
"q 	c #9A8811",
"r 	c #FFFFEF",
"s 	c #FFF1C5",
"t 	c #FEF4D1",
"u 	c #FFF6D9",
"v 	c #FFF8E5",
"w 	c #FEF8E6",
"x 	c #E0DBC6",
"y 	c #BCBAB5",
"z 	c #EEEEEE",
"A 	c #E9E9EA",
"B 	c #C8C6BE",
"C 	c #F1E7C4",
"D 	c #F5E6A7",
"E 	c #EEDF9B",
"F 	c #E4D689",
"G 	c #EEE6BA",
"H 	c #AD9D35",
"I 	c #6C600F",
"J 	c #BBB8A7",
"K 	c #D3CDB8",
"L 	c #EEE6C6",
"M 	c #FEF4CE",
"N 	c #FFF8E3",
"O 	c #FFFAEB",
"P 	c #F9F7E8",
"Q 	c #C4C4C1",
"R 	c #F5F5F5",
"S 	c #F7F7F7",
"T 	c #F3F3F3",
"U 	c #E8E8E8",
"V 	c #CAC8C2",
"W 	c #FAECB4",
"X 	c #ECDC8E",
"Y 	c #E2D27B",
"Z 	c #DAC96E",
"` 	c #E8DEA8",
" .	c #8C7A00",
"..	c #C8C4A8",
"+.	c #F6F6F6",
"@.	c #F2F2F2",
"#.	c #D1D0CF",
"$.	c #F7F0D2",
"%.	c #FFF5D5",
"&.	c #FFF8E2",
"*.	c #FEFBEF",
"=.	c #C3C1BD",
"-.	c #FBFBFC",
";.	c #ACACAC",
">.	c #EDEDED",
",.	c #D6D6D8",
"'.	c #E0D7B0",
").	c #EAD67E",
"!.	c #E0CC6A",
"~.	c #D9C662",
"{.	c #C6AF31",
"].	c #BAAC53",
"^.	c #FCFCFF",
"/.	c #D8D8D8",
"(.	c #D7D5CB",
"_.	c #FFF4CB",
":.	c #FFF6DB",
"<.	c #FFFAE7",
"[.	c #C4C1B9",
"}.	c #404040",
"|.	c #B2B2B2",
"1.	c #979797",
"2.	c #EBEBEB",
"3.	c #D8D8D9",
"4.	c #C8C3AD",
"5.	c #BFB378",
"6.	c #A9A075",
"7.	c #A09A77",
"8.	c #958A4C",
"9.	c #AFA885",
"0.	c #8C843F",
"a.	c #B3A85B",
"b.	c #FAFBFF",
"c.	c #6B6B6B",
"d.	c #454545",
"e.	c #D4D4D4",
"f.	c #C4C3BD",
"g.	c #FFF4C6",
"h.	c #FFF3CD",
"i.	c #FFF6D5",
"j.	c #C3BEAB",
"k.	c #1D1D1D",
"l.	c #7D7D7D",
"m.	c #777777",
"n.	c #C9C9C9",
"o.	c #A3A3A3",
"p.	c #C9C9CA",
"q.	c #FDFDFD",
"r.	c #FEFEFE",
"s.	c #F0F0EF",
"t.	c #D6D7D9",
"u.	c #AEAEAD",
"v.	c #8C8C8C",
"w.	c #BBBBBF",
"x.	c #9C9C9C",
"y.	c #737373",
"z.	c #959595",
"A.	c #CECBC4",
"B.	c #FFEEB0",
"C.	c #FFEFB9",
"D.	c #FFF0BF",
"E.	c #E0D3A6",
"F.	c #CDCDCD",
"G.	c #6C6C6C",
"H.	c #2B2B2B",
"I.	c #898989",
"J.	c #DCDCDC",
"K.	c #F0F0F0",
"L.	c #F1F1F1",
"M.	c #ECECEC",
"N.	c #F4F4F4",
"O.	c #AAAAAA",
"P.	c #958724",
"Q.	c #D8D9DD",
"R.	c #303030",
"S.	c #323232",
"T.	c #AFB0B2",
"U.	c #EDE3BF",
"V.	c #FEE58D",
"W.	c #FFE99F",
"X.	c #FEEBA7",
"Y.	c #FFEFAB",
"Z.	c #BBAF81",
"`.	c #C6C6C4",
" +	c #B7B7B7",
".+	c #FCFCFC",
"++	c #EFEFEF",
"@+	c #EAEAEA",
"#+	c #E5E5E5",
"$+	c #E1E1E1",
"%+	c #CACACA",
"&+	c #796A00",
"*+	c #BABAB9",
"=+	c #B3B5BB",
"-+	c #A6A6A7",
";+	c #DBD4BA",
">+	c #FFE689",
",+	c #FFE380",
"'+	c #FFE487",
")+	c #FFE58C",
"!+	c #FFE98E",
"~+	c #A5A4A2",
"{+	c #E9E9E9",
"]+	c #DEDEDE",
"^+	c #D9D9D9",
"/+	c #E2E2E2",
"(+	c #827200",
"_+	c #DBCE85",
":+	c #C5AF40",
"<+	c #E1CD6F",
"[+	c #EFD361",
"}+	c #F5D65D",
"|+	c #FCDD6C",
"1+	c #FFE074",
"2+	c #FFE178",
"3+	c #FFE477",
"4+	c #AFA88F",
"5+	c #F6F5F5",
"6+	c #E3E3E3",
"7+	c #DDDDDD",
"8+	c #CFCFCF",
"9+	c #A9A9A9",
"0+	c #8B7A00",
"a+	c #C8BB68",
"b+	c #C4A500",
"c+	c #D1B218",
"d+	c #DCBD2F",
"e+	c #E6C640",
"f+	c #EDCE4E",
"g+	c #F2D357",
"h+	c #DBC368",
"i+	c #A1A2A8",
"j+	c #C3C3C3",
"k+	c #F8F8F8",
"l+	c #AEAEAE",
"m+	c #B6B6B6",
"n+	c #BCBCBC",
"o+	c #D6D6D6",
"p+	c #C8C8C8",
"q+	c #C2C2C2",
"r+	c #D2D2D2",
"s+	c #929292",
"t+	c #A29120",
"u+	c #CFB941",
"v+	c #C4A602",
"w+	c #CDAE12",
"x+	c #D5B721",
"y+	c #DCBD2D",
"z+	c #E8C938",
"A+	c #F9D63C",
"B+	c #ACA586",
"C+	c #C6C6C6",
"D+	c #F9F9F9",
"E+	c #BABABA",
"F+	c #D5D5D5",
"G+	c #D1D1D1",
"H+	c #C7C7C7",
"I+	c #BEBEBE",
"J+	c #9B9B9B",
"K+	c #D5C673",
"L+	c #BA9C00",
"M+	c #C0A200",
"N+	c #CAAB04",
"O+	c #826E0A",
"P+	c #3F3607",
"Q+	c #100C00",
"R+	c #F6F7FB",
"S+	c #DBDBDB",
"T+	c #B8B8B8",
"U+	c #CBCBCB",
"V+	c #818181",
"W+	c #8F8F8F",
"X+	c #9B8A17",
"Y+	c #CDBA4F",
"Z+	c #B89B00",
"`+	c #AD9300",
" @	c #342C00",
".@	c #403500",
"+@	c #57552D",
"@@	c #FBFBFB",
"#@	c #E7E7E7",
"$@	c #B3B3B3",
"%@	c #A8A8A8",
"&@	c #BDBDBD",
"*@	c #939393",
"=@	c #868686",
"-@	c #ADADAD",
";@	c #949494",
">@	c #B0A13C",
",@	c #BFA728",
"'@	c #B99C00",
")@	c #796C20",
"!@	c #5E4200",
"~@	c #A9605E",
"{@	c #F8F9F8",
"]@	c #919191",
"^@	c #555555",
"/@	c #DFDFDF",
"(@	c #3D3D3D",
"_@	c #C5C5C5",
":@	c #9A9A9A",
"<@	c #858585",
"[@	c #999999",
"}@	c #A0A0A0",
"|@	c #B1A13D",
"1@	c #BEA833",
"2@	c #B49A0D",
"3@	c #B3995A",
"4@	c #B96567",
"5@	c #F2F1F1",
"6@	c #C4C4C4",
"7@	c #676767",
"8@	c #464646",
"9@	c #D3D3D3",
"0@	c #A6A6A6",
"a@	c #1B1B1B",
"b@	c #686868",
"c@	c #B5B5B5",
"d@	c #8B8B8B",
"e@	c #828282",
"f@	c #909090",
"g@	c #A2A2A2",
"h@	c #9F8E1B",
"i@	c #C3B24E",
"j@	c #AF9613",
"k@	c #989461",
"l@	c #E6E6E6",
"m@	c #656565",
"n@	c #888888",
"o@	c #DADADA",
"p@	c #1E1E1E",
"q@	c #9E9E9E",
"r@	c #9F9F9F",
"s@	c #878787",
"t@	c #7E7E7E",
"u@	c #A7962A",
"v@	c #ADA261",
"w@	c #A2A2A4",
"x@	c #B9B9B9",
"y@	c #C0C0C0",
"z@	c #BBBBBB",
"A@	c #C1C1C1",
"B@	c #797979",
"C@	c #989898",
"D@	c #897906",
"E@	c #C1C1C4",
"F@	c #B0B0B0",
"G@	c #A5A5A5",
"H@	c #B4B4B4",
"I@	c #AFAFAF",
"J@	c #8E8E8E",
"K@	c #757575",
"L@	c #A1A1A1",
"M@	c #A7A7A7",
"N@	c #ABABAB",
"O@	c #9D9D9D",
"P@	c #787878",
"Q@	c #626262",
"R@	c #343434",
"S@	c #171717",
"T@	c #0A0A0A",
"U@	c #090909",
"V@	c #060606",
"W@	c #030303",
"X@	c #141414",
"Y@	c #3B3B3B",
"Z@	c #767676",
"`@	c #969696",
" #	c #8A8A8A",
".#	c #2D3737",
"+#	c #363131",
"@#	c #2B3232",
"##	c #2D2D2D",
"$#	c #282C2C",
"%#	c #262929",
"&#	c #212626",
"*#	c #222222",
"=#	c #838383",
"-#	c #7F7F7F",
";#	c #545353",
">#	c #553B3B",
",#	c #9C1010",
"'#	c #A20D0D",
")#	c #8D1818",
"!#	c #6A2A2A",
"~#	c #A00F0F",
"{#	c #A40D0D",
"]#	c #8B1616",
"^#	c #3B3333",
"/#	c #373737",
"(#	c #E4E4E4",
"_#	c #B99999",
":#	c #BB0F0F",
"<#	c #C00F0F",
"[#	c #C01515",
"}#	c #C11515",
"|#	c #C11414",
"1#	c #BE0404",
"2#	c #AC6969",
"3#	c #8C8B8B",
"4#	c #CDD8D8",
"5#	c #F0BFBF",
"6#	c #EC8686",
"7#	c #E16969",
"8#	c #E77676",
"9#	c #EF9898",
"0#	c #E7D5D5",
"a#	c #ACAFAF",
"b#	c #A8AAAA",
"c#	c #A3A4A4",
"                                                                ",
"                    .   . + @ #                                 ",
"              $ % & * = - - ; > , .                             ",
"            ' ) - ! ~ { ] ^ / ( _ : <                           ",
"          [ } | 1 ] ~ 2 3 4 5 6 7 8 9 0 $                       ",
"        a b c d 2 ~ e f g h i j k l m n o p                     ",
"      q r s t u ~ v w x y z A B C D E F G H                     ",
"    I J K L M 4 N O P Q R S T U V W X Y Z `  .                  ",
"    ..+.@.#.$.%.&.*.=.-.T ;.- >.,.'.).!.~.{.].                  ",
"    ^.- - /.(._.:.<.[.- }.|.1.2.3.4.5.6.7.8.9.0.                ",
"  a.b.c.d.e.f.g.h.i.j.- k.l.m.n.o.p.A q.- r.s.t.u.v.            ",
"    w.x.y.z.A.B.C.D.E.F.G.H.I.J.- T K.L.K.z M.2.N.T O.          ",
"  P.Q.R.S.T.U.V.W.X.Y.Z.`. +.+++++L.@.L.++M.@+U #+$+@.%+        ",
"  &+*+=+-+;+>+,+'+)+)+!+~+.+@+>.K.@.@.K.++M.{+#+$+]+^+/+n.      ",
"  (+_+:+<+[+}+|+1+2+3+4+5+6+{+z L.T N.@.++++K.{+7+^+e.8+$+9+    ",
"  0+a+b+c+d+e+f+g+}+h+i+j+U U z @.S k+N.]+l+m+n+F.o+8+p+q+r+s+  ",
"    t+u+v+w+x+y+z+A+B+- >.C+@+M.T D+.+M.E+k+N.z F+G+H+q+I+J+|.  ",
"    $ K+L+M+N+O+P+Q+R+D+T S+F+U ++R k+T+k+k+D+N.6+j+U+E+l+V+I+W+",
"      X+Y+Z+`+ @.@+@- @@q+C+j+#@{+M.+.$@@.k+N.%@>.&@%+|.*@=@-@;@",
"        >@,@'@)@!@~@{@$+]@^@n./+/@/+>.;.>.- (@|.I._@T+:@W+<@[@}@",
"          |@1@2@3@4@5@6@7@8@/.F.9@o+]+0@/@- a@l.b@c@&@z.d@e@f@g@",
"            h@i@j@k@l@$+m@n@/.q+H+n.%+:@G+o@m@p@q@C+r@f@s@t@W+r@",
"              0+u@v@w@;.x@G+ +E+I+y@y@j+s@q+p+G+z@A@*@d@e@B@C@C@",
"                  D@E@%@F@G@;.F@H@m+c@c@T+}@I@&@n+s+J@<@l.K@o.s+",
"                    L@-@[@q@o.M@I@ +T+|.N@9+-@M@O@f@=@t@P@P@M@z.",
"                    J@A@v.z.q@Q@R@S@T@U@U@V@W@W@X@Y@=@m.Z@1.`@  ",
"                      q@N@ #B@S.R@.#+#@###$#%#&#*#k.=#Z@-#g@;@  ",
"                        O.z.n@;#>#,#'#)#!#~#{#]#^#/#(#y.}@;@    ",
"                          %@;@]@_#:#<#[#}#[#|#1#2##+t@q@z.      ",
"                            x.L@3#4#5#6#7#8#9#0#a#n@J+*@        ",
"                              z.q@x.=@:@b#c#J@J@q@z.`@          ",
"                                    z.C@C@C@z.;@;@              "};
